<svg xmlns="http://www.w3.org/2000/svg" version="1.1" xmlns:xlink="http://www.w3.org/1999/xlink" xmlns:svgjs="http://svgjs.dev/svgjs" width="1000" height="1000" viewBox="0 0 1000 1000"><rect width="1000" height="1000" fill="#000000"></rect><g transform="matrix(0.7,0,0,0.7,149.57575757575756,282.1265587044535)"><svg viewBox="0 0 396 247" data-background-color="#ffffff" preserveAspectRatio="xMidYMid meet" height="623" width="1000" xmlns="http://www.w3.org/2000/svg" xmlns:xlink="http://www.w3.org/1999/xlink"><g id="tight-bounds" transform="matrix(1,0,0,1,0.2400000000000091,-0.09999999999999432)"><svg viewBox="0 0 395.52 247.2" height="247.2" width="395.52"><g><svg></svg></g><g><svg viewBox="0 0 395.52 247.2" height="247.2" width="395.52"><g transform="matrix(1,0,0,1,101.10776639999999,47.215199999999996)"><svg viewBox="0 0 193.3044672 152.7696" height="152.7696" width="193.3044672"><g><svg viewBox="0 0 193.3044672 152.7696" height="152.7696" width="193.3044672"><g><svg viewBox="0 0 193.3044672 152.7696" height="152.7696" width="193.3044672"><g><svg viewBox="0 0 193.3044672 152.7696" height="152.7696" width="193.3044672"><g id="textblocktransform"><svg viewBox="0 0 193.3044672 152.7696" height="152.7696" width="193.3044672" id="textblock"><g><svg viewBox="0 0 193.3044672 152.7696" height="152.7696" width="193.3044672"><g transform="matrix(1,0,0,1,0,0)"><svg width="193.3044672" viewBox="2 -37.5 47.45000076293945 37.5" height="152.7696" data-palette-color="#a437db"><path d="M23.2-3.4L26.4-3.4 26.4 0 16.75 0 16.75-3.4 19.15-3.4 19.15-21.9 9.2-15.65 9.2-3.4 11.65-3.4 11.65 0 2 0 2-3.4 5.15-3.4 5.15-34.1 2-34.1 2-37.5 9.2-37.5 9.2-19.7 17.5-24.9Q18.45-25.5 19.75-25.5 21.05-25.5 22.13-24.48 23.2-23.45 23.2-21.55L23.2-21.55 23.2-3.4ZM45.55-25L45.55-25Q49.45-25 49.45-21.15L49.45-21.15 49.45-16.7 45.4-16.7 45.4-21.55 37.6-16.6 37.6-3.4 40.05-3.4 40.05 0 30.4 0 30.4-3.4 33.55-3.4 33.55-21.65 30.4-21.65 30.4-25.05 37.6-25.05 37.6-20.65 43.75-24.5Q44.55-25 45.55-25Z" opacity="1" transform="matrix(1,0,0,1,0,0)" fill="#ffffff" class="wordmark-text-0" data-fill-palette-color="primary" id="text-0"></path></svg></g></svg></g></svg></g></svg></g></svg></g></svg></g></svg></g><path d="M283.409 41.215L283.409 0 36.209 0 36.209 247.2 283.409 247.2 283.409 205.985 269.632 205.985 269.632 233.423 49.986 233.423 49.986 13.777 269.632 13.777 269.632 41.215Z" fill="#ffffff" stroke="transparent" data-fill-palette-color="primary"></path></svg></g><defs></defs></svg><rect width="395.52" height="247.2" fill="none" stroke="none" visibility="hidden"></rect></g></svg></g></svg>